<?xml version="1.0" standalone="no"?>
<!DOCTYPE svg PUBLIC "-//W3C//DTD SVG 20010904//EN"
 "http://www.w3.org/TR/2001/REC-SVG-20010904/DTD/svg10.dtd">
<svg version="1.0" xmlns="http://www.w3.org/2000/svg"
 width="225.000000pt" height="225.000000pt" viewBox="0 0 225.000000 225.000000"
 preserveAspectRatio="xMidYMid meet">

<g transform="translate(0.000000,225.000000) scale(0.100000,-0.100000)"
fill="#000000" stroke="none">
<path d="M0 1125 l0 -1125 1125 0 1125 0 0 1125 0 1125 -1125 0 -1125 0 0
-1125z m1552 724 c80 -27 139 -70 183 -133 73 -107 70 -74 73 -743 l3 -603
-125 0 -125 0 -3 572 c-3 552 -4 574 -23 607 -70 118 -250 116 -310 -4 -17
-34 -21 -67 -25 -208 l-5 -169 -102 183 -103 182 16 60 c37 142 109 223 237
262 69 22 237 19 309 -6z m-902 -577 c0 -527 0 -528 23 -572 29 -59 73 -83
147 -83 69 0 115 23 145 73 18 31 21 57 25 236 l5 202 104 -187 104 -186 -11
-64 c-24 -141 -120 -267 -239 -311 -50 -19 -74 -21 -173 -18 -97 3 -123 7
-165 28 -63 31 -134 101 -164 163 -50 103 -51 115 -51 700 l0 547 125 0 125 0
0 -528z m454 -68 l247 -422 -3 -57 -3 -57 -81 139 c-44 76 -158 269 -252 429
-170 287 -172 292 -172 350 0 32 4 54 8 49 5 -6 120 -200 256 -431z"/>
</g>
</svg>
